<?xml version="1.0" standalone="no"?>
<!DOCTYPE svg PUBLIC "-//W3C//DTD SVG 20010904//EN"
 "http://www.w3.org/TR/2001/REC-SVG-20010904/DTD/svg10.dtd">
<svg version="1.0" xmlns="http://www.w3.org/2000/svg"
 width="712.000000pt" height="980.000000pt" viewBox="0 0 712.000000 980.000000"
 preserveAspectRatio="xMidYMid meet">

<g transform="translate(0.000000,980.000000) scale(0.100000,-0.100000)"
fill="#000000" stroke="none">
<path d="M2201 9746 l-53 -53 4 -494 c3 -544 2 -532 67 -578 l29 -21 1320 0
1320 0 27 32 c15 18 32 43 38 57 7 17 12 191 15 515 l4 489 -53 53 -53 54
-1306 0 -1306 0 -53 -54z"/>
<path d="M765 9301 l-170 -6 -89 -43 c-234 -112 -422 -322 -456 -509 -31 -172
-33 -368 -37 -3593 -4 -3463 3 -4442 32 -4544 78 -277 303 -501 576 -571 89
-23 1016 -34 2939 -34 1913 0 2849 11 2940 34 97 24 236 97 310 161 124 109
198 219 251 374 l33 95 7 640 c9 843 9 6060 0 6790 l-8 570 -32 95 c-75 221
-204 366 -442 494 l-86 46 -635 0 -635 0 -5 -142 c-3 -79 -4 -145 -1 -148 3
-3 273 -7 601 -10 l597 -6 60 -38 c101 -65 144 -106 199 -190 l53 -81 7 -115
c3 -63 6 -1860 6 -3994 l0 -3879 -41 -86 c-49 -101 -135 -193 -219 -236 -54
-27 -56 -28 -340 -36 -374 -11 -5056 -10 -5317 0 -186 8 -205 11 -258 35 -75
34 -182 142 -221 222 -28 56 -29 66 -36 249 -3 104 -7 1906 -7 4004 l-1 3813
36 59 c64 106 110 155 201 215 l88 58 545 7 c381 5 558 11 589 20 59 16 71 47
71 184 l0 105 -467 -2 c-258 -1 -544 -4 -638 -7z"/>
<path d="M2616 8295 c-89 -47 -451 -386 -731 -686 -104 -112 -220 -235 -256
-273 l-67 -70 -103 88 c-223 189 -271 228 -391 318 -68 51 -140 102 -159 112
-41 21 -69 16 -69 -12 0 -72 548 -747 669 -823 30 -20 58 -29 85 -29 38 0 46
6 126 88 209 217 558 658 823 1040 109 158 134 210 116 243 -12 23 -7 22 -43
4z"/>
<path d="M3131 7699 c-47 -70 -49 -84 -21 -138 36 -71 67 -88 172 -96 51 -3
752 -5 1557 -3 l1464 3 34 49 c46 67 45 114 -4 190 l-37 56 -1562 0 -1562 0
-41 -61z"/>
<path d="M2549 6284 c-70 -51 -756 -733 -889 -884 -46 -52 -88 -97 -92 -98 -5
-2 -43 27 -86 65 -189 169 -506 417 -569 445 -45 20 -73 16 -73 -12 0 -38 146
-233 418 -558 202 -241 248 -282 319 -282 79 0 93 13 359 330 204 244 416 520
598 780 121 172 139 205 132 235 -10 38 -45 32 -117 -21z"/>
<path d="M3345 5791 c-179 -8 -211 -20 -234 -89 -31 -99 12 -174 110 -193 35
-7 586 -12 1554 -16 l1501 -5 38 42 c79 88 80 144 3 227 l-40 43 -1391 -2
c-765 -1 -1459 -4 -1541 -7z"/>
<path d="M1158 4350 c-111 -60 -81 -117 132 -251 117 -73 310 -206 310 -214 0
-2 -30 -29 -67 -58 -86 -69 -265 -250 -338 -342 -66 -82 -131 -207 -140 -267
-12 -80 50 -198 105 -198 34 0 73 45 182 209 130 194 253 360 336 451 l60 65
83 -80 c176 -167 369 -393 478 -560 39 -59 67 -94 69 -84 11 54 -216 481 -395
743 -41 60 -77 115 -79 121 -8 20 220 197 488 381 61 41 70 54 38 54 -56 0
-369 -150 -586 -281 l-32 -19 -112 105 c-184 172 -293 235 -420 241 -61 4 -82
1 -112 -16z"/>
<path d="M3246 3821 c-74 -6 -80 -8 -107 -41 -62 -74 -61 -120 4 -207 l32 -42
1556 -1 1556 0 20 23 c74 80 83 157 28 231 l-36 46 -1487 -2 c-818 -1 -1522
-4 -1566 -7z"/>
<path d="M2621 2398 c-82 -30 -505 -433 -853 -810 -110 -120 -202 -218 -204
-218 -1 0 -66 53 -142 119 -258 219 -423 346 -499 385 -37 18 -79 21 -88 5
-13 -19 90 -160 327 -450 253 -310 353 -409 413 -409 67 0 217 154 529 543
172 215 416 541 493 658 51 79 63 104 63 137 0 47 -6 53 -39 40z"/>
<path d="M3137 1808 c-62 -92 -59 -116 24 -204 l52 -54 1126 1 c619 0 1302 4
1517 8 378 8 393 9 439 31 35 17 52 33 67 65 28 58 19 104 -34 161 l-41 44
-1557 0 -1558 0 -35 -52z"/>
</g>
</svg>
